<svg width="40" height="40" viewBox="0 0 40 40" fill="none" xmlns="http://www.w3.org/2000/svg">
<path d="M37.9508 13.4097C36.8195 13.4097 35.9032 14.3082 35.9032 15.4166V29.1324C35.7768 29.1743 35.6502 29.2093 35.5277 29.2678C35.4918 29.2844 33.5689 30.1861 30.465 31.028C29.4771 30.3497 28.2218 30.0467 26.943 30.2888C22.2476 31.1806 17.6915 31.1925 13.0007 30.3173C11.7359 30.0834 10.4944 30.3803 9.51327 31.0472C6.41971 30.2066 4.5034 29.3014 4.44661 29.2742C4.33163 29.2185 4.21314 29.1853 4.09551 29.1456L4.09573 15.416C4.09573 14.3081 3.17877 13.409 2.04753 13.409C0.916911 13.409 0 14.3075 0 15.416V31.8043C0 31.9004 0.0149773 31.9912 0.0284138 32.084C0.0711445 33.1483 0.674667 34.1592 1.7167 34.6673C1.89335 34.7528 4.28186 35.8979 8.09408 36.9136C8.73216 38.0586 9.8683 38.9251 11.2784 39.1891C14.1623 39.7267 17.0581 40 19.8865 40C22.7805 40 25.7457 39.7149 28.6981 39.1546C30.0925 38.89 31.2166 38.034 31.854 36.9043C35.6595 35.8938 38.0549 34.7601 38.232 34.6746C39.2022 34.2078 39.8025 33.3067 39.9209 32.3281C39.967 32.1604 40 31.9867 40 31.805L39.9996 15.4161C39.9989 14.3082 39.0821 13.4097 37.9507 13.4097L37.9508 13.4097ZM7.00835 14.4128L7.00768 27.0661C7.41495 27.2213 7.91033 27.4015 8.50369 27.5945C10.0918 26.8067 11.9477 26.5389 13.7219 26.8671C17.9957 27.6668 22.0182 27.6568 26.3103 26.8406C28.1009 26.5004 29.9535 26.7683 31.5449 27.5539C32.0916 27.375 32.555 27.2083 32.9442 27.062L32.951 14.412C32.951 12.151 34.6602 10.2914 36.8763 9.96445V3.84693C36.8763 2.73907 36.021 2.21589 34.8287 1.83995C34.8287 1.83995 28.3369 0 20.1078 0C11.8769 0 5.13192 1.83995 5.13192 1.83995C3.96938 2.19391 3.08371 2.73846 3.08371 3.84693V9.96445C5.2991 10.2916 7.00837 12.1521 7.00837 14.4129L7.00835 14.4128Z" fill="#8694AA"/>
</svg>
